<?xml version="1.0" standalone="no"?>
<!DOCTYPE svg PUBLIC "-//W3C//DTD SVG 20010904//EN"
 "http://www.w3.org/TR/2001/REC-SVG-20010904/DTD/svg10.dtd">
<svg version="1.0" xmlns="http://www.w3.org/2000/svg"
 width="700.000000pt" height="700.000000pt" viewBox="0 0 700.000000 700.000000"
 preserveAspectRatio="xMidYMid meet">
<metadata>
Created by potrace 1.11, written by Peter Selinger 2001-2013
</metadata>
<g transform="translate(0.000000,700.000000) scale(0.100000,-0.100000)"
fill="#000000" stroke="none">
<path d="M1946 6746 c-194 -194 -256 -262 -256 -280 0 -19 197 -221 875 -900
l876 -876 -834 -832 c-458 -458 -841 -839 -851 -847 -16 -13 -35 3 -212 180
l-194 194 668 667 c367 367 670 667 674 665 4 -1 52 -46 107 -99 104 -103 131
-116 164 -80 36 39 23 61 -115 199 -125 124 -143 137 -177 134 -8 0 -339 -326
-737 -724 -542 -542 -724 -730 -728 -751 -5 -26 15 -49 242 -277 136 -136 261
-253 277 -259 29 -11 32 -7 906 866 797 797 879 876 895 863 9 -8 392 -389
850 -847 l834 -833 -197 -196 -196 -195 -671 671 -671 671 45 43 c169 164 181
184 142 230 -32 37 -56 22 -197 -119 -105 -106 -135 -142 -135 -163 0 -21 132
-158 723 -748 661 -661 725 -723 760 -727 37 -4 38 -3 272 230 129 129 242
245 250 258 15 22 15 27 1 53 -8 15 -396 408 -861 872 -465 465 -852 852 -861
862 -16 17 32 67 830 865 l847 847 97 -94 c53 -52 142 -140 196 -196 l99 -102
-670 -670 -669 -670 -95 95 c-112 114 -121 120 -159 104 -31 -13 -43 -41 -30
-74 4 -11 67 -79 139 -150 93 -92 135 -127 146 -122 9 3 21 6 27 6 5 0 335
326 734 724 612 613 724 729 724 753 0 23 -43 71 -253 280 -194 194 -258 253
-277 253 -20 0 -211 -186 -900 -875 l-875 -875 -849 849 -850 850 190 190
c104 105 194 191 199 191 11 0 1328 -1313 1333 -1330 2 -5 -39 -53 -92 -106
-53 -53 -98 -105 -102 -116 -9 -30 22 -68 55 -68 22 0 53 25 159 131 122 121
132 135 132 169 0 35 -28 64 -724 761 -512 511 -732 725 -749 727 -21 3 -68
-39 -281 -252z"/>
<path d="M2422 3140 c-29 -12 -39 -40 -47 -136 -3 -43 -8 -90 -10 -104 -2 -14
-7 -49 -10 -79 -4 -30 -9 -63 -11 -75 -2 -12 -8 -46 -14 -76 -20 -117 -63
-302 -85 -371 -9 -25 -17 -54 -19 -65 -5 -23 -74 -221 -87 -249 -5 -11 -26
-60 -48 -110 l-38 -90 -279 -2 c-154 -2 -289 -5 -302 -8 -55 -13 -45 -100 12
-110 17 -2 941 -4 2054 -2 1990 2 2024 2 2038 21 19 27 18 60 -4 79 -16 15
-53 17 -309 17 l-290 0 -53 133 c-80 197 -96 227 -124 227 -13 0 -34 -8 -46
-18 -19 -15 -22 -25 -16 -53 5 -26 72 -202 102 -265 3 -7 -393 -10 -1321 -10
-743 0 -1325 4 -1325 8 0 5 16 48 36 96 40 97 107 287 129 366 8 28 21 76 30
106 20 74 81 380 90 455 4 33 9 69 11 79 2 11 6 63 10 116 6 94 6 98 -17 114
-26 18 -26 18 -57 6z"/>
<path d="M3248 2963 c-29 -8 -34 -53 -34 -305 1 -224 3 -249 19 -265 16 -16
41 -18 265 -19 136 0 259 4 273 9 15 4 30 18 33 30 3 12 6 133 6 270 0 234 -1
248 -20 267 -19 19 -33 20 -272 19 -139 -1 -261 -3 -270 -6z m442 -291 l0
-178 -172 2 c-95 1 -176 2 -179 3 -3 0 -5 80 -5 176 l1 175 177 0 178 0 0
-178z"/>
<path d="M2159 1409 c-34 -34 -17 -65 109 -191 l116 -117 1 -491 0 -490 -280
0 c-154 0 -678 0 -1165 0 -789 0 -888 -1 -908 -15 -30 -21 -30 -68 0 -89 20
-14 367 -16 3484 -16 3148 0 3462 1 3468 16 3 9 6 29 6 44 0 63 72 59 -1203
60 -638 0 -1162 2 -1166 4 -3 2 -6 223 -6 490 l1 487 122 124 c127 129 138
149 102 185 -37 37 -57 26 -194 -110 l-131 -129 -3 -526 -3 -525 -379 0 c-209
0 -454 -1 -545 -1 -91 0 -374 1 -630 1 l-465 0 0 522 0 522 -133 133 c-140
140 -159 151 -198 112z"/>
<path d="M3471 1048 c-19 -19 -21 -34 -20 -161 1 -122 3 -141 20 -155 25 -22
50 -24 77 -6 21 14 22 20 22 164 0 143 -1 150 -22 164 -31 22 -54 20 -77 -6z"/>
</g>
</svg>
