<?xml version="1.0" encoding="iso-8859-1"?>
<!-- Generator: Adobe Illustrator 19.0.0, SVG Export Plug-In . SVG Version: 6.00 Build 0)  -->
<svg version="1.1" id="Layer_1" xmlns="http://www.w3.org/2000/svg" xmlns:xlink="http://www.w3.org/1999/xlink" x="0px" y="0px"
	 viewBox="0 0 503.04 503.04" style="enable-background:new 0 0 503.04 503.04;" xml:space="preserve">
<path style="fill:#363636;" d="M499.84,503.04H4.907c-2.56,0-4.267-1.707-4.267-4.267s1.707-4.267,4.267-4.267h166.4V423.68
	l-16.213-16.213c-1.707-1.707-1.707-4.267,0-5.973c1.707-1.707,4.267-1.707,5.973,0l17.067,17.067
	c0.853,0.853,0.853,1.707,0.853,3.413v72.533h145.067v-72.533c0-0.853,0.853-2.56,0.853-3.413l17.067-17.067
	c1.707-1.707,4.267-1.707,5.973,0c1.707,1.707,1.707,4.267,0,5.973l-16.213,16.213v70.827h166.4c2.56,0,4.267,1.707,4.267,4.267
	S502.4,503.04,499.84,503.04z M252.373,451.84c-2.56,0-4.267-1.707-4.267-4.267v-17.067c0-2.56,1.707-4.267,4.267-4.267
	s4.267,1.707,4.267,4.267v17.067C256.64,450.133,254.933,451.84,252.373,451.84z M149.973,383.574L149.973,383.574h-42.667
	c-2.56,0-4.267-1.707-4.267-4.267c0-2.56,1.707-4.267,4.267-4.267h40.107c19.627-40.96,23.04-81.92,23.893-93.867
	c0-2.56,2.56-4.267,4.267-4.267c2.56,0,4.267,1.707,4.267,4.267c-0.853,11.947-4.267,52.053-23.04,93.013h191.147
	c-2.56-5.973-5.973-12.8-7.68-19.627c-0.853-2.56,0-4.267,2.56-5.12s4.267,0,5.12,2.56l9.387,23.04h40.107
	c2.56,0,4.267,1.707,4.267,4.267c0,2.56-1.707,4.267-4.267,4.267h-42.667l0,0H149.973L149.973,383.574z M346.24,332.374
	c-0.853,0-2.56,0-3.413-0.853l-102.4-102.4c-1.707-1.707-1.707-4.267,0-5.973l17.067-17.067c1.707-1.707,4.267-1.707,5.973,0
	c1.707,1.707,1.707,4.267,0,5.973l-13.653,13.653l96.427,96.427l28.16-28.16L252.373,171.947L127.787,296.534
	c-1.707,1.707-4.267,1.707-5.973,0L87.68,262.4c-1.707-1.707-1.707-4.267,0-5.973l102.4-102.4c1.707-1.707,4.267-1.707,5.973,0
	l17.067,17.067c1.707,1.707,1.707,4.267,0,5.973c-1.707,1.707-4.267,1.707-5.973,0l-13.653-13.653L97.067,259.84l28.16,28.16
	l122.027-122.027L122.667,41.387c-1.707-1.707-1.707-4.267,0-5.973L156.8,1.28c1.707-1.707,4.267-1.707,5.973,0l102.4,102.4
	c0.853,0.853,0.853,1.707,0.853,3.413c0,1.707,0,2.56-0.853,3.413l-17.067,17.067c-1.707,1.707-4.267,1.707-5.973,0
	c-1.707-1.707-1.707-4.267,0-5.973l13.653-13.653L159.36,11.52L131.2,39.68l122.027,122.027L377.813,37.12
	c1.707-1.707,4.267-1.707,5.973,0l34.133,34.133c1.707,1.707,1.707,4.267,0,5.973l-102.4,102.4c-1.707,1.707-4.267,1.707-5.973,0
	L292.48,162.56c-1.707-1.707-1.707-4.267,0-5.973c1.707-1.707,4.267-1.707,5.973,0l13.653,13.653l96.427-96.427l-28.16-28.16
	L258.347,167.68l124.587,124.587c1.707,1.707,1.707,4.267,0,5.973L348.8,332.373C348.8,332.374,347.093,332.374,346.24,332.374z
	 M269.44,332.374h-34.133c-2.56,0-4.267-1.707-4.267-4.267v-34.133c0-2.56,1.707-4.267,4.267-4.267h34.133
	c2.56,0,4.267,1.707,4.267,4.267v34.133C273.707,330.667,272,332.374,269.44,332.374z M239.573,323.84h25.6v-25.6h-25.6V323.84z"/>
<g>
</g>
<g>
</g>
<g>
</g>
<g>
</g>
<g>
</g>
<g>
</g>
<g>
</g>
<g>
</g>
<g>
</g>
<g>
</g>
<g>
</g>
<g>
</g>
<g>
</g>
<g>
</g>
<g>
</g>
</svg>
